<svg width="69" height="114" viewBox="0 0 69 114" fill="none" xmlns="http://www.w3.org/2000/svg">
<path d="M45.9918 14.5121C44.4468 13.7671 41.6602 14.2086 39.0944 13.7947C33.9352 12.9671 33.3006 11.5048 33.3006 10.4288C33.273 9.29764 32.2522 9.24246 32.2522 10.4564C32.2798 17.6297 43.0673 13.9603 46.1297 15.8088L45.9918 14.5121ZM10.8979 12.0566C10.9255 10.1253 9.60116 8.8838 8.4424 8.77344C9.13214 9.57353 9.27009 10.7323 9.38045 11.8635C9.15973 10.2633 7.97338 9.21487 6.95257 9.15969C7.50436 9.73907 7.80784 10.9254 7.86302 12.0842C7.69748 11.2013 6.8698 9.87702 5.49032 9.73907C6.12488 10.4012 6.31801 11.6428 6.45596 12.7739C6.26283 11.8083 5.2696 10.7047 4.16602 10.6219C4.63504 11.0082 5.0213 12.4153 5.10407 13.4913C4.96612 13.0498 4.19361 11.9738 2.97967 11.8359C3.61423 12.4153 3.89013 13.8223 4.00048 14.9259L10.8979 12.0566ZM8.82866 41.2463C8.49758 39.7289 7.17328 38.1287 5.68345 38.3219C6.37319 38.7909 6.89739 40.5566 7.09051 41.6878C6.62149 40.4187 5.46273 39.0668 4.08325 39.2323C4.82817 39.8945 5.2696 41.5222 5.5455 42.7362C4.80058 41.3291 3.89013 40.2807 2.53824 40.4462C3.44869 41.3291 3.77977 42.8741 4.00048 44.0605C3.55905 43.0673 2.53824 41.8533 1.15876 41.9913C2.01404 42.7638 2.3727 44.4467 2.67619 45.6883C2.1244 44.9433 1.29671 43.8949 0 44.0053C0.855276 44.833 1.24153 46.4608 1.60019 47.7023L8.82866 41.2463ZM13.243 95.2391C11.7807 94.3562 9.7667 94.6597 8.82866 95.8737C9.87706 95.6805 11.4221 96.2599 12.029 96.7565C11.0358 96.122 8.9666 96.5082 8.16651 97.6118C9.10455 97.3635 10.622 97.9981 11.4221 98.4671C10.3737 98.1084 8.74589 98.1912 7.72507 99.4327C8.58035 99.2396 9.98742 99.7086 10.8979 100.233C9.60116 99.9293 8.33204 100.426 7.58713 101.309C8.7183 101.061 9.98742 101.723 10.7599 102.081C9.29768 102.054 8.41481 102.633 7.89061 103.24C8.82866 103.047 10.2633 103.544 11.3117 104.095L13.243 95.2391ZM51.6201 104.316C49.7164 104.068 48.1438 105.227 47.6747 106.578C48.1989 106.165 49.8543 105.916 50.9303 106.247C49.4405 106.165 47.9506 107.379 47.6472 108.482C48.2541 107.985 50.1854 107.848 50.9027 108.151C49.5508 108.206 48.2541 109.227 47.8679 110.358C48.5024 109.944 50.2682 109.779 51.2614 110.027C49.7991 110.248 48.7507 111.296 48.4197 112.262C49.3025 111.682 50.4613 111.738 51.8959 111.82C50.4061 112.372 49.9095 113.007 49.4129 114C50.2406 113.476 51.7028 113.448 53.1375 113.559" fill="#E2382A" fill-opacity="0.2"/>
<path d="M41.743 3.03485L35.0111 3.28316C34.68 3.31075 34.4317 3.47628 34.4317 3.86254C34.4593 6.29042 34.9283 7.86302 36.6665 9.13214C36.4458 10.484 36.5837 11.1738 37.9908 12.3049C38.1287 11.2014 38.5702 10.7047 39.2599 10.2357C39.3151 10.2633 39.3703 10.2633 39.3979 10.2909C39.3151 10.7875 39.3151 11.3117 39.4254 11.6152C39.7013 12.3877 41.0532 12.4153 41.4119 11.8635C41.743 12.6636 42.4327 12.6912 42.9845 12.6912C43.5639 12.6912 43.8398 12.2773 44.0329 11.8911C44.364 12.167 44.695 12.4705 44.9985 12.8567C45.9642 14.181 46.1297 15.8916 46.1297 17.5194L45.2192 17.6021V16.94C45.1917 16.0019 43.0121 15.8364 42.5155 16.6365C41.9637 16.0295 40.2531 16.1399 40.2531 17.1055V17.409C39.8669 16.9124 39.5634 16.3882 39.3151 15.864C38.6253 16.3054 38.2115 16.6365 38.3219 18.2091C38.0184 18.2367 37.7149 18.2643 37.439 18.2919C37.4666 20.1128 38.2667 20.6094 44.7778 20.4714C44.9434 22.2924 43.1224 23.3132 41.7706 24.1684C38.2391 26.1825 34.5145 28.3896 32.5005 32.0866C30.8175 35.0111 30.4037 38.4874 30.5968 41.8533L32.5281 40.9981L32.7488 42.0465C29.2725 43.7018 22.9269 47.0678 18.7609 48.999C17.7401 49.4681 15.0915 50.1302 14.5397 49.1922C12.636 45.909 11.1186 43.426 8.9114 40.9153C7.78023 39.6186 0.275868 45.8262 1.65535 47.923C4.80055 52.696 9.93221 59.5382 18.485 59.5934C27.3412 59.6486 35.0387 56.393 36.7217 55.8964L37.0803 57.0276C35.9492 57.5242 34.9559 57.8829 33.7696 58.2691C35.3146 64.3388 37.1079 66.7115 41.2739 70.4085L40.4187 71.0431C39.6738 70.6017 38.4046 69.1946 37.7149 68.5324C28.8586 72.7261 25.5479 76.9197 23.4235 81.2512C21.0784 86.4657 21.5198 92.3974 22.513 97.8877C22.7062 98.7982 21.7129 99.2396 20.968 98.9637C18.9264 98.4947 17.7952 96.4531 15.8364 95.7082C14.9535 95.3219 13.7947 94.8805 12.8291 95.046C11.2565 95.3219 9.57355 103.268 11.1737 104.04C14.1534 105.502 17.409 105.806 20.7197 107.516C22.8993 108.399 24.9961 109.834 27.4792 109.448C28.8862 109.31 30.2933 108.344 30.4312 106.854C31.6728 101.502 33.4109 95.8185 37.4942 91.956C39.453 90.0247 41.9913 88.4797 44.5019 87.2933C43.5087 83.486 42.7638 79.6786 42.8465 75.7057L44.0605 75.6505C44.9434 90.7696 48.9714 93.9424 56.0619 100.978C56.7793 101.695 56.7241 103.047 55.6757 103.461C54.2962 104.151 52.6684 104.178 51.0958 104.261C49.4129 104.344 50.682 113.669 53.165 113.586C57.5242 113.448 62.0489 110.055 64.6699 106.716C65.7735 105.337 67.0978 103.957 68.1462 102.606C69.4429 100.923 68.0358 98.9637 67.6496 97.4187C66.5736 93.0044 66.077 80.3132 66.0218 78.5474L67.5668 78.575L67.7875 75.3746C63.18 69.6636 63.925 60.7246 62.0213 54.9584C61.2764 52.6133 60.4487 50.1854 60.4487 47.7023C60.4487 44.3364 64.256 38.0184 64.1733 32.3901C64.1457 30.0174 62.8214 26.9274 62.849 25.5203C62.8766 21.4371 65.2217 22.3199 65.1665 13.8224C65.1389 11.4773 64.863 9.73911 64.256 7.33882C68.3669 3.00726 62.711 -1.3243 59.4555 1.37948C56.8344 0.689739 56.5034 0 51.3717 0C46.985 0 44.4743 1.18635 41.743 3.00726V3.03485ZM33.7972 28.3345C30.9003 31.8935 29.2725 33.6868 29.3828 42.3224C2.0416 26.7067 10.0426 24.4719 4.05564 15.1467C3.11759 13.6844 9.21488 10.2909 11.1462 11.7256C15.0363 14.5949 13.6016 20.0024 16.8296 22.4579C20.03 24.8858 25.741 25.9618 33.7972 28.3345ZM50.4889 8.27687C50.075 8.27687 49.3301 8.05615 49.1094 7.75266C46.7091 4.08325 46.1021 5.40755 45.7435 6.67667C45.44 7.80784 44.1157 7.83543 44.5019 6.31801C45.4676 2.59342 48.0886 3.11762 51.3441 8.27687H50.4889ZM58.3795 4.55228C59.0416 3.66941 60.0624 2.81413 61.166 2.45547C62.7938 1.90368 63.4559 3.22798 62.1592 3.66941C61.0832 4.13843 60.1728 4.80058 59.4003 5.57309L58.3795 4.55228ZM36.97 9.32527C37.3838 9.57357 37.9632 9.87706 38.8185 10.1254C38.3495 10.5116 37.908 11.0634 37.7701 11.6704C37.0252 11.1462 36.7217 10.1805 36.97 9.32527ZM41.3843 10.7875C41.3843 11.1462 41.3015 11.5048 41.1912 11.6704C40.9153 12.1118 39.8945 12.0842 39.6738 11.4773C39.591 11.2289 39.591 10.7875 39.7013 10.3737C40.2531 10.5116 40.8325 10.622 41.3843 10.7875ZM41.7154 10.8703C42.4603 11.091 43.1776 11.3393 43.8122 11.7531C43.6742 12.0842 43.4259 12.4153 42.9293 12.4153C42.4879 12.4153 41.9913 12.3877 41.7154 11.8635C41.5774 11.5876 41.6326 11.2014 41.7154 10.8703ZM38.5978 18.1815C38.515 17.409 38.5978 16.7469 39.2047 16.3054C39.5082 16.8572 39.8393 17.3814 40.2255 17.8504V18.0436L38.5978 18.1815ZM40.5014 18.0298V17.1607C40.5014 16.2502 42.4327 16.3054 42.4603 17.1607V17.8504L40.5014 18.0298ZM42.7086 17.8228V17.0503C42.7086 16.1399 44.9434 16.1951 44.9434 17.0228V17.6297" fill="black" fill-opacity="0.3"/>
</svg>
