<svg width="1248" height="143" viewBox="0 0 1248 143" fill="none" xmlns="http://www.w3.org/2000/svg">
<rect width="1248" height="143" rx="20" fill="white"/>
<rect x="24" y="24" width="1200" height="50" rx="12" fill="url(#paint0_linear)"/>
<path d="M34.001 104.425H35.9453V106.52H34.001V110H31.3906V106.52H24.6338L24.5586 104.93L31.3047 94.3594H34.001V104.425ZM27.2979 104.425H31.3906V97.8936L31.1973 98.2373L27.2979 104.425ZM47.5254 98.4844C47.5254 99.2507 47.3285 99.9346 46.9346 100.536C46.5407 101.131 46.0036 101.6 45.3232 101.943C46.1396 102.323 46.7663 102.842 47.2031 103.501C47.6471 104.16 47.8691 104.905 47.8691 105.735C47.8691 107.11 47.4036 108.202 46.4727 109.012C45.5417 109.814 44.3027 110.215 42.7559 110.215C41.2018 110.215 39.9557 109.81 39.0176 109.001C38.0866 108.192 37.6211 107.103 37.6211 105.735C37.6211 104.897 37.8431 104.146 38.2871 103.479C38.7311 102.813 39.3542 102.301 40.1562 101.943C39.4831 101.6 38.9495 101.131 38.5557 100.536C38.1689 99.9346 37.9756 99.2507 37.9756 98.4844C37.9756 97.1523 38.4053 96.096 39.2646 95.3154C40.124 94.5348 41.2842 94.1445 42.7451 94.1445C44.2132 94.1445 45.377 94.5348 46.2363 95.3154C47.0957 96.096 47.5254 97.1523 47.5254 98.4844ZM45.2588 105.606C45.2588 104.833 45.026 104.21 44.5605 103.737C44.1022 103.257 43.4935 103.018 42.7344 103.018C41.9753 103.018 41.3665 103.254 40.9082 103.727C40.457 104.199 40.2314 104.826 40.2314 105.606C40.2314 106.373 40.4535 106.985 40.8975 107.443C41.3486 107.902 41.9681 108.131 42.7559 108.131C43.5436 108.131 44.1559 107.909 44.5928 107.465C45.0368 107.021 45.2588 106.401 45.2588 105.606ZM44.9258 98.5811C44.9258 97.9007 44.7288 97.3421 44.335 96.9053C43.9411 96.4613 43.4111 96.2393 42.7451 96.2393C42.0791 96.2393 41.5527 96.4505 41.166 96.873C40.7793 97.2884 40.5859 97.8577 40.5859 98.5811C40.5859 99.2972 40.7793 99.8665 41.166 100.289C41.5599 100.712 42.0898 100.923 42.7559 100.923C43.4219 100.923 43.9482 100.712 44.335 100.289C44.7288 99.8665 44.9258 99.2972 44.9258 98.5811ZM60.5879 95.8096L54.3359 110H51.5967L57.8379 96.4541H49.749V94.3594H60.5879V95.8096ZM75.2295 110H72.6299V97.4424L68.7949 98.7529V96.5508L74.8965 94.3057H75.2295V110ZM81.3633 102.244L82.2119 94.3594H90.6123V96.6152H84.3818L83.9521 100.354C84.6755 99.9382 85.4919 99.7305 86.4014 99.7305C87.891 99.7305 89.0475 100.207 89.8711 101.159C90.7018 102.112 91.1172 103.394 91.1172 105.005C91.1172 106.595 90.6589 107.862 89.7422 108.808C88.8255 109.746 87.5687 110.215 85.9717 110.215C84.5394 110.215 83.3506 109.81 82.4053 109.001C81.4671 108.185 80.9587 107.11 80.8799 105.778H83.4043C83.5046 106.537 83.7767 107.121 84.2207 107.529C84.6647 107.93 85.2448 108.131 85.9609 108.131C86.763 108.131 87.3861 107.844 87.8301 107.271C88.2812 106.699 88.5068 105.918 88.5068 104.93C88.5068 103.977 88.2598 103.225 87.7656 102.674C87.2715 102.115 86.5911 101.836 85.7246 101.836C85.252 101.836 84.8509 101.9 84.5215 102.029C84.1921 102.151 83.834 102.395 83.4473 102.76L81.3633 102.244ZM93.8672 102.244L94.7158 94.3594H103.116V96.6152H96.8857L96.4561 100.354C97.1794 99.9382 97.9958 99.7305 98.9053 99.7305C100.395 99.7305 101.551 100.207 102.375 101.159C103.206 102.112 103.621 103.394 103.621 105.005C103.621 106.595 103.163 107.862 102.246 108.808C101.329 109.746 100.073 110.215 98.4756 110.215C97.0433 110.215 95.8545 109.81 94.9092 109.001C93.971 108.185 93.4626 107.11 93.3838 105.778H95.9082C96.0085 106.537 96.2806 107.121 96.7246 107.529C97.1686 107.93 97.7487 108.131 98.4648 108.131C99.2669 108.131 99.89 107.844 100.334 107.271C100.785 106.699 101.011 105.918 101.011 104.93C101.011 103.977 100.764 103.225 100.27 102.674C99.7754 102.115 99.0951 101.836 98.2285 101.836C97.7559 101.836 97.3548 101.9 97.0254 102.029C96.696 102.151 96.3379 102.395 95.9512 102.76L93.8672 102.244Z" fill="black"/>
<path d="M1136.69 110H1126.17V108.206L1131.38 102.523C1132.13 101.686 1132.67 100.987 1132.98 100.429C1133.3 99.863 1133.46 99.2972 1133.46 98.7314C1133.46 97.9867 1133.25 97.3851 1132.83 96.9268C1132.42 96.4684 1131.85 96.2393 1131.14 96.2393C1130.3 96.2393 1129.64 96.4971 1129.18 97.0127C1128.71 97.5283 1128.48 98.2337 1128.48 99.1289H1125.87C1125.87 98.1764 1126.08 97.3206 1126.51 96.5615C1126.95 95.7952 1127.57 95.2008 1128.37 94.7783C1129.18 94.3558 1130.11 94.1445 1131.17 94.1445C1132.68 94.1445 1133.88 94.5277 1134.75 95.2939C1135.63 96.0531 1136.08 97.1058 1136.08 98.4521C1136.08 99.2327 1135.85 100.053 1135.41 100.912C1134.97 101.764 1134.25 102.735 1133.25 103.823L1129.43 107.916H1136.69V110ZM1152.27 94.2842V96.4434H1151.95C1150.49 96.4648 1149.32 96.8659 1148.45 97.6465C1147.58 98.4271 1147.06 99.5335 1146.89 100.966C1147.73 100.085 1148.8 99.6445 1150.1 99.6445C1151.49 99.6445 1152.58 100.132 1153.37 101.105C1154.17 102.079 1154.57 103.336 1154.57 104.876C1154.57 106.466 1154.1 107.755 1153.17 108.743C1152.24 109.724 1151.01 110.215 1149.49 110.215C1147.93 110.215 1146.66 109.638 1145.69 108.485C1144.72 107.332 1144.24 105.821 1144.24 103.952V103.061C1144.24 100.318 1144.91 98.1693 1146.24 96.6152C1147.58 95.0612 1149.5 94.2842 1152.01 94.2842H1152.27ZM1149.47 101.75C1148.9 101.75 1148.37 101.911 1147.89 102.233C1147.42 102.556 1147.07 102.985 1146.85 103.522V104.317C1146.85 105.478 1147.09 106.401 1147.58 107.089C1148.07 107.769 1148.7 108.109 1149.47 108.109C1150.24 108.109 1150.86 107.819 1151.31 107.239C1151.76 106.659 1151.98 105.896 1151.98 104.951C1151.98 104.006 1151.76 103.236 1151.3 102.642C1150.84 102.047 1150.23 101.75 1149.47 101.75ZM1165.49 104.425H1167.43V106.52H1165.49V110H1162.88V106.52H1156.12L1156.04 104.93L1162.79 94.3594H1165.49V104.425ZM1158.78 104.425H1162.88V97.8936L1162.68 98.2373L1158.78 104.425ZM1179.01 98.4844C1179.01 99.2507 1178.81 99.9346 1178.42 100.536C1178.03 101.131 1177.49 101.6 1176.81 101.943C1177.63 102.323 1178.25 102.842 1178.69 103.501C1179.13 104.16 1179.36 104.905 1179.36 105.735C1179.36 107.11 1178.89 108.202 1177.96 109.012C1177.03 109.814 1175.79 110.215 1174.24 110.215C1172.69 110.215 1171.44 109.81 1170.5 109.001C1169.57 108.192 1169.11 107.103 1169.11 105.735C1169.11 104.897 1169.33 104.146 1169.77 103.479C1170.22 102.813 1170.84 102.301 1171.64 101.943C1170.97 101.6 1170.44 101.131 1170.04 100.536C1169.66 99.9346 1169.46 99.2507 1169.46 98.4844C1169.46 97.1523 1169.89 96.096 1170.75 95.3154C1171.61 94.5348 1172.77 94.1445 1174.23 94.1445C1175.7 94.1445 1176.86 94.5348 1177.72 95.3154C1178.58 96.096 1179.01 97.1523 1179.01 98.4844ZM1176.75 105.606C1176.75 104.833 1176.51 104.21 1176.05 103.737C1175.59 103.257 1174.98 103.018 1174.22 103.018C1173.46 103.018 1172.85 103.254 1172.39 103.727C1171.94 104.199 1171.72 104.826 1171.72 105.606C1171.72 106.373 1171.94 106.985 1172.38 107.443C1172.83 107.902 1173.45 108.131 1174.24 108.131C1175.03 108.131 1175.64 107.909 1176.08 107.465C1176.52 107.021 1176.75 106.401 1176.75 105.606ZM1176.41 98.5811C1176.41 97.9007 1176.22 97.3421 1175.82 96.9053C1175.43 96.4613 1174.9 96.2393 1174.23 96.2393C1173.57 96.2393 1173.04 96.4505 1172.65 96.873C1172.27 97.2884 1172.07 97.8577 1172.07 98.5811C1172.07 99.2972 1172.27 99.8665 1172.65 100.289C1173.05 100.712 1173.58 100.923 1174.24 100.923C1174.91 100.923 1175.43 100.712 1175.82 100.289C1176.22 99.8665 1176.41 99.2972 1176.41 98.5811ZM1195.97 104.425H1197.92V106.52H1195.97V110H1193.36V106.52H1186.61L1186.53 104.93L1193.28 94.3594H1195.97V104.425ZM1189.27 104.425H1193.36V97.8936L1193.17 98.2373L1189.27 104.425ZM1200.35 102.244L1201.19 94.3594H1209.59V96.6152H1203.36L1202.93 100.354C1203.66 99.9382 1204.47 99.7305 1205.38 99.7305C1206.87 99.7305 1208.03 100.207 1208.85 101.159C1209.68 102.112 1210.1 103.394 1210.1 105.005C1210.1 106.595 1209.64 107.862 1208.72 108.808C1207.81 109.746 1206.55 110.215 1204.95 110.215C1203.52 110.215 1202.33 109.81 1201.39 109.001C1200.45 108.185 1199.94 107.11 1199.86 105.778H1202.39C1202.49 106.537 1202.76 107.121 1203.2 107.529C1203.65 107.93 1204.23 108.131 1204.94 108.131C1205.75 108.131 1206.37 107.844 1206.81 107.271C1207.26 106.699 1207.49 105.918 1207.49 104.93C1207.49 103.977 1207.24 103.225 1206.75 102.674C1206.25 102.115 1205.57 101.836 1204.71 101.836C1204.23 101.836 1203.83 101.9 1203.5 102.029C1203.17 102.151 1202.82 102.395 1202.43 102.76L1200.35 102.244ZM1222.67 110H1212.15V108.206L1217.36 102.523C1218.11 101.686 1218.65 100.987 1218.96 100.429C1219.28 99.863 1219.45 99.2972 1219.45 98.7314C1219.45 97.9867 1219.23 97.3851 1218.81 96.9268C1218.4 96.4684 1217.83 96.2393 1217.12 96.2393C1216.28 96.2393 1215.62 96.4971 1215.16 97.0127C1214.69 97.5283 1214.46 98.2337 1214.46 99.1289H1211.85C1211.85 98.1764 1212.07 97.3206 1212.5 96.5615C1212.93 95.7952 1213.55 95.2008 1214.35 94.7783C1215.16 94.3558 1216.09 94.1445 1217.15 94.1445C1218.66 94.1445 1219.86 94.5277 1220.73 95.2939C1221.62 96.0531 1222.06 97.1058 1222.06 98.4521C1222.06 99.2327 1221.83 100.053 1221.39 100.912C1220.95 101.764 1220.23 102.735 1219.23 103.823L1215.41 107.916H1222.67V110Z" fill="black"/>
<defs>
<linearGradient id="paint0_linear" x1="24" y1="49" x2="1224" y2="48.9999" gradientUnits="userSpaceOnUse">
<stop stop-color="#99AFCE"/>
<stop offset="1" stop-color="#003884"/>
</linearGradient>
</defs>
</svg>
