<svg width="1248" height="143" viewBox="0 0 1248 143" fill="none" xmlns="http://www.w3.org/2000/svg">
<rect width="1248" height="143" rx="20" fill="white"/>
<rect x="24" y="24" width="1200" height="50" rx="12" fill="url(#paint0_linear)"/>
<path d="M35.6875 110H25.1709V108.206L30.3809 102.523C31.1328 101.686 31.6663 100.987 31.9814 100.429C32.3037 99.863 32.4648 99.2972 32.4648 98.7314C32.4648 97.9867 32.2536 97.3851 31.8311 96.9268C31.4157 96.4684 30.8535 96.2393 30.1445 96.2393C29.2995 96.2393 28.6442 96.4971 28.1787 97.0127C27.7132 97.5283 27.4805 98.2337 27.4805 99.1289H24.8701C24.8701 98.1764 25.085 97.3206 25.5146 96.5615C25.9515 95.7952 26.571 95.2008 27.373 94.7783C28.1823 94.3558 29.1133 94.1445 30.166 94.1445C31.6842 94.1445 32.8802 94.5277 33.7539 95.2939C34.6348 96.0531 35.0752 97.1058 35.0752 98.4521C35.0752 99.2327 34.8532 100.053 34.4092 100.912C33.9723 101.764 33.2526 102.735 32.25 103.823L28.4258 107.916H35.6875V110ZM46.5049 104.425H48.4492V106.52H46.5049V110H43.8945V106.52H37.1377L37.0625 104.93L43.8086 94.3594H46.5049V104.425ZM39.8018 104.425H43.8945V97.8936L43.7012 98.2373L39.8018 104.425ZM50.877 102.244L51.7256 94.3594H60.126V96.6152H53.8955L53.4658 100.354C54.1891 99.9382 55.0055 99.7305 55.915 99.7305C57.4046 99.7305 58.5612 100.207 59.3848 101.159C60.2155 102.112 60.6309 103.394 60.6309 105.005C60.6309 106.595 60.1725 107.862 59.2559 108.808C58.3392 109.746 57.0824 110.215 55.4854 110.215C54.0531 110.215 52.8643 109.81 51.9189 109.001C50.9808 108.185 50.4723 107.11 50.3936 105.778H52.918C53.0182 106.537 53.2904 107.121 53.7344 107.529C54.1784 107.93 54.7585 108.131 55.4746 108.131C56.2767 108.131 56.8997 107.844 57.3438 107.271C57.7949 106.699 58.0205 105.918 58.0205 104.93C58.0205 103.977 57.7734 103.225 57.2793 102.674C56.7852 102.115 56.1048 101.836 55.2383 101.836C54.7656 101.836 54.3646 101.9 54.0352 102.029C53.7057 102.151 53.3477 102.395 52.9609 102.76L50.877 102.244ZM75.2295 110H72.6299V97.4424L68.7949 98.7529V96.5508L74.8965 94.3057H75.2295V110ZM88.0664 103.458C87.1927 104.382 86.1722 104.844 85.0049 104.844C83.6299 104.844 82.5342 104.364 81.7178 103.404C80.9014 102.438 80.4932 101.17 80.4932 99.6016C80.4932 98.5703 80.7008 97.6357 81.1162 96.7979C81.5316 95.96 82.1224 95.3083 82.8887 94.8428C83.6549 94.3773 84.543 94.1445 85.5527 94.1445C87.1283 94.1445 88.3779 94.7318 89.3018 95.9062C90.2256 97.0807 90.6875 98.6527 90.6875 100.622V101.353C90.6875 104.174 90.0501 106.326 88.7754 107.809C87.5007 109.291 85.5993 110.043 83.0713 110.064H82.7598V107.905H83.1357C84.6755 107.884 85.8571 107.515 86.6807 106.799C87.5042 106.076 87.9661 104.962 88.0664 103.458ZM85.5527 102.803C86.0755 102.803 86.5661 102.652 87.0244 102.352C87.4827 102.051 87.8372 101.635 88.0879 101.105V100.085C88.0879 98.932 87.8516 98.0046 87.3789 97.3027C86.9062 96.6009 86.2939 96.25 85.542 96.25C84.79 96.25 84.1885 96.5615 83.7373 97.1846C83.2933 97.8005 83.0713 98.5811 83.0713 99.5264C83.0713 100.507 83.2969 101.299 83.748 101.9C84.1992 102.502 84.8008 102.803 85.5527 102.803ZM103.578 95.8096L97.3262 110H94.5869L100.828 96.4541H92.7393V94.3594H103.578V95.8096Z" fill="black"/>
<path d="M1153 104.425H1154.95V106.52H1153V110H1150.39V106.52H1143.63L1143.56 104.93L1150.3 94.3594H1153V104.425ZM1146.3 104.425H1150.39V97.8936L1150.2 98.2373L1146.3 104.425ZM1166.87 103.415C1166.87 105.664 1166.45 107.361 1165.6 108.507C1164.76 109.646 1163.49 110.215 1161.77 110.215C1160.08 110.215 1158.8 109.66 1157.94 108.55C1157.09 107.433 1156.65 105.782 1156.63 103.598V100.891C1156.63 98.6419 1157.05 96.9554 1157.89 95.8311C1158.73 94.7067 1160.02 94.1445 1161.75 94.1445C1163.46 94.1445 1164.73 94.6924 1165.57 95.7881C1166.41 96.8838 1166.85 98.5238 1166.87 100.708V103.415ZM1164.26 100.493C1164.26 99.0251 1164.06 97.9508 1163.66 97.2705C1163.26 96.583 1162.62 96.2393 1161.75 96.2393C1160.89 96.2393 1160.27 96.5651 1159.87 97.2168C1159.46 97.8613 1159.25 98.8711 1159.23 100.246V103.791C1159.23 105.252 1159.44 106.34 1159.84 107.057C1160.25 107.773 1160.89 108.131 1161.77 108.131C1162.6 108.131 1163.22 107.801 1163.62 107.143C1164.03 106.477 1164.24 105.438 1164.26 104.027V100.493ZM1176.58 103.458C1175.71 104.382 1174.69 104.844 1173.52 104.844C1172.14 104.844 1171.05 104.364 1170.23 103.404C1169.42 102.438 1169.01 101.17 1169.01 99.6016C1169.01 98.5703 1169.21 97.6357 1169.63 96.7979C1170.05 95.96 1170.64 95.3083 1171.4 94.8428C1172.17 94.3773 1173.06 94.1445 1174.07 94.1445C1175.64 94.1445 1176.89 94.7318 1177.82 95.9062C1178.74 97.0807 1179.2 98.6527 1179.2 100.622V101.353C1179.2 104.174 1178.56 106.326 1177.29 107.809C1176.01 109.291 1174.11 110.043 1171.58 110.064H1171.27V107.905H1171.65C1173.19 107.884 1174.37 107.515 1175.19 106.799C1176.02 106.076 1176.48 104.962 1176.58 103.458ZM1174.07 102.803C1174.59 102.803 1175.08 102.652 1175.54 102.352C1176 102.051 1176.35 101.635 1176.6 101.105V100.085C1176.6 98.932 1176.37 98.0046 1175.89 97.3027C1175.42 96.6009 1174.81 96.25 1174.06 96.25C1173.3 96.25 1172.7 96.5615 1172.25 97.1846C1171.81 97.8005 1171.58 98.5811 1171.58 99.5264C1171.58 100.507 1171.81 101.299 1172.26 101.9C1172.71 102.502 1173.31 102.803 1174.07 102.803ZM1190.18 100.987H1191.77C1192.57 100.98 1193.21 100.772 1193.67 100.364C1194.14 99.9561 1194.38 99.3652 1194.38 98.5918C1194.38 97.847 1194.18 97.2705 1193.79 96.8623C1193.4 96.4469 1192.81 96.2393 1192.01 96.2393C1191.3 96.2393 1190.73 96.4434 1190.28 96.8516C1189.83 97.2526 1189.6 97.779 1189.6 98.4307H1186.99C1186.99 97.6286 1187.2 96.8981 1187.62 96.2393C1188.05 95.5804 1188.65 95.0684 1189.41 94.7031C1190.17 94.3307 1191.03 94.1445 1191.97 94.1445C1193.53 94.1445 1194.76 94.5384 1195.65 95.3262C1196.54 96.1068 1196.99 97.1953 1196.99 98.5918C1196.99 99.2936 1196.76 99.9561 1196.31 100.579C1195.87 101.195 1195.29 101.66 1194.58 101.976C1195.44 102.269 1196.1 102.731 1196.54 103.361C1196.99 103.992 1197.22 104.743 1197.22 105.617C1197.22 107.021 1196.73 108.138 1195.77 108.969C1194.81 109.799 1193.54 110.215 1191.97 110.215C1190.47 110.215 1189.24 109.814 1188.28 109.012C1187.32 108.21 1186.84 107.143 1186.84 105.811H1189.45C1189.45 106.498 1189.68 107.057 1190.14 107.486C1190.6 107.916 1191.23 108.131 1192.01 108.131C1192.82 108.131 1193.45 107.916 1193.92 107.486C1194.38 107.057 1194.62 106.434 1194.62 105.617C1194.62 104.794 1194.37 104.16 1193.89 103.716C1193.4 103.272 1192.68 103.05 1191.72 103.05H1190.18V100.987ZM1202.68 100.987H1204.27C1205.08 100.98 1205.71 100.772 1206.17 100.364C1206.65 99.9561 1206.88 99.3652 1206.88 98.5918C1206.88 97.847 1206.69 97.2705 1206.29 96.8623C1205.91 96.4469 1205.31 96.2393 1204.51 96.2393C1203.81 96.2393 1203.23 96.4434 1202.78 96.8516C1202.33 97.2526 1202.1 97.779 1202.1 98.4307H1199.49C1199.49 97.6286 1199.7 96.8981 1200.13 96.2393C1200.56 95.5804 1201.15 95.0684 1201.91 94.7031C1202.68 94.3307 1203.53 94.1445 1204.48 94.1445C1206.04 94.1445 1207.26 94.5384 1208.15 95.3262C1209.05 96.1068 1209.49 97.1953 1209.49 98.5918C1209.49 99.2936 1209.27 99.9561 1208.82 100.579C1208.37 101.195 1207.8 101.66 1207.09 101.976C1207.95 102.269 1208.6 102.731 1209.04 103.361C1209.49 103.992 1209.72 104.743 1209.72 105.617C1209.72 107.021 1209.24 108.138 1208.27 108.969C1207.31 109.799 1206.05 110.215 1204.48 110.215C1202.97 110.215 1201.74 109.814 1200.78 109.012C1199.82 108.21 1199.34 107.143 1199.34 105.811H1201.95C1201.95 106.498 1202.18 107.057 1202.64 107.486C1203.11 107.916 1203.73 108.131 1204.51 108.131C1205.32 108.131 1205.96 107.916 1206.42 107.486C1206.89 107.057 1207.12 106.434 1207.12 105.617C1207.12 104.794 1206.88 104.16 1206.39 103.716C1205.9 103.272 1205.18 103.05 1204.22 103.05H1202.68V100.987ZM1212.87 102.244L1213.72 94.3594H1222.12V96.6152H1215.89L1215.46 100.354C1216.18 99.9382 1217 99.7305 1217.91 99.7305C1219.39 99.7305 1220.55 100.207 1221.38 101.159C1222.21 102.112 1222.62 103.394 1222.62 105.005C1222.62 106.595 1222.16 107.862 1221.25 108.808C1220.33 109.746 1219.07 110.215 1217.48 110.215C1216.04 110.215 1214.85 109.81 1213.91 109.001C1212.97 108.185 1212.46 107.11 1212.38 105.778H1214.91C1215.01 106.537 1215.28 107.121 1215.72 107.529C1216.17 107.93 1216.75 108.131 1217.46 108.131C1218.27 108.131 1218.89 107.844 1219.33 107.271C1219.79 106.699 1220.01 105.918 1220.01 104.93C1220.01 103.977 1219.76 103.225 1219.27 102.674C1218.78 102.115 1218.1 101.836 1217.23 101.836C1216.76 101.836 1216.35 101.9 1216.03 102.029C1215.7 102.151 1215.34 102.395 1214.95 102.76L1212.87 102.244Z" fill="black"/>
<defs>
<linearGradient id="paint0_linear" x1="24" y1="49" x2="1224" y2="48.9999" gradientUnits="userSpaceOnUse">
<stop stop-color="#EE8573"/>
<stop offset="0.502904" stop-color="#B02D22"/>
<stop offset="1" stop-color="#E33525"/>
</linearGradient>
</defs>
</svg>
